<?xml version="1.0" encoding="UTF-8" standalone="no"?>
<svg xmlns="http://www.w3.org/2000/svg" xml:space="preserve" width="85.333336" height="85.333336">
  <g transform="matrix(.13333 0 0 -.13333 0 85.333333)">
    <path fill="#ff64a0" d="M638.332 320c0-176.73-143.269-320-320-320C141.602 0-1.66797 143.27-1.66797 320S141.602 640 318.332 640c176.731 0 320-143.27 320-320"/>
    <path fill="#ff3f89" d="M500 140H140c-11.047 0-20 8.953-20 20 0 3.645.973 7.059 2.676 10 3.457-5.977 9.922-10 17.324-10h360c7.402 0 13.867 4.023 17.324 10 1.703-2.941 2.676-6.355 2.676-10 0-11.047-8.953-20-20-20"/>
    <path fill="#e08e4c" d="M520 180c0-11.047-8.953-20-20-20H140c-11.047 0-20 8.953-20 20s8.953 20 20 20h360c11.047 0 20-8.953 20-20"/>
    <path fill="#c84755" d="M230 440h-40c-16.57 0-30-13.43-30-30V200h100v210c0 16.57-13.43 30-30 30"/>
    <path fill="#e1e3cc" d="M450 480h-40c-16.57 0-30-13.43-30-30V200h100v250c0 16.57-13.43 30-30 30"/>
    <path fill="#e08e4c" d="M160 370h100v30H160Zm0-130h100v30H160Z"/>
    <path fill="#fff" d="M380 240h100v30H380Zm0 170h100v30H380Z"/>
    <path fill="#b7b7a7" d="M400 200h-20v40h20v-40m0 70h-20v140h20V270"/>
    <path fill="#d4d3d1" d="M380 240h20v30h-20z"/>
    <path fill="#6594b2" d="M380 450v.043V450m0 .059v.031-.031m0 .046v.028-.028m0 .047v.028-.028m0 .067v.011-.011m0 .043v.008-.008"/>
    <path fill="#b7b7a7" d="M400 440h-20v10.27c.117 12.925 8.457 23.789 20 27.894V440"/>
    <path fill="#d4d3d1" d="M380 410h20v30h-20z"/>
    <path fill="#6594b2" d="M260 410v.043V410m0 .059v.031-.031m0 .046v.028-.028m0 .043v.028-.028m0 .071v.011-.011m0 .043v.008-.008"/>
    <path fill="#a43f4a" d="M260 200h-20v40h20v-40m0 70h-20v100h20V270m0 130h-20v38.164c11.543-4.105 19.883-14.969 20-27.894V400"/>
    <path fill="#b77744" d="M240 370h20v30h-20zm0-130h20v30h-20z"/>
    <path fill="#495672" d="M350 520h-60c-16.57 0-30-13.43-30-30V200h120v290c0 16.57-13.43 30-30 30"/>
    <path fill="#77caa9" d="M380 450H260v30h120v-30m0-210H260v30h120v-30"/>
  </g>
</svg>